<svg xmlns="http://www.w3.org/2000/svg" viewBox="0 0 16 16">
  <mask id="mask">
    <!-- <path fill="none" stroke="white" stroke-width=".8" d="M13.44 6.84a4.437 4.437 0 0 0-4.32-3.84 4.19 4.19 0 0 0-2.04.53 3.39 3.39 0 0 0-4.08 3.26c0 .16.01.31.04.47A2.502 2.502 0 0 0 3.5 12h9.25a3.25 3.25 0 0 0 .69-6.5z" transform="translate(-1, -1) scale(1, 1.2)" /> -->

  <path fill="none" stroke="white" stroke-width=".5" d="M13.5 6.84 
    a4.437 4.437 0 0 0-4.32-3.84 
    a4.19 4.19 0 0 0-2.09.53 
    a3.39 3.39 0 0 0-3.59 3.26
    c0 .16.01.31.04.47
    A2.5 2.5 0 0 0 3.5 12
    h9.25
    a3.25 3.25 0 0 0 .75-5.16
    z" transform="translate(-1.4, -.5) scale(1.15)" />

    <text stroke="none" fill="white" x="5.5" y="11.7" font-family="Verdana" font-size="8px">
      V
    </text>
  </mask>
  <rect width="16" height="16" fill="white" mask="url(#mask)" />
</svg>